{
    "asset" : {
        "generator" : "Khronos glTF Blender I/O v1.1.46",
        "version" : "2.0"
    },
    "scene" : 0,
    "scenes" : [
        {
            "name" : "Scene",
            "nodes" : [
                0,
                1,
                2,
                3,
                4,
                5
            ]
        }
    ],
    "nodes" : [
        {
            "mesh" : 0,
            "name" : "Cube.001",
            "scale" : [
                50,
                10,
                1
            ],
            "translation" : [
                0,
                10,
                52
            ]
        },
        {
            "mesh" : 0,
            "name" : "Cube.003",
            "scale" : [
                50,
                10,
                1
            ],
            "translation" : [
                0,
                10,
                -52
            ]
        },
        {
            "mesh" : 0,
            "name" : "Cube.004",
            "rotation" : [
                0,
                0.7071067690849304,
                0,
                0.7071067690849304
            ],
            "scale" : [
                50,
                10,
                1
            ],
            "translation" : [
                -52,
                10,
                0
            ]
        },
        {
            "mesh" : 0,
            "name" : "Cube.005",
            "rotation" : [
                0,
                0.7071067690849304,
                0,
                0.7071067690849304
            ],
            "scale" : [
                50,
                10,
                1
            ],
            "translation" : [
                52,
                10,
                0
            ]
        },
        {
            "mesh" : 1,
            "name" : "floor",
            "rotation" : [
                0.7071067690849304,
                0,
                0,
                0.7071067690849304
            ],
            "scale" : [
                50,
                50,
                1
            ],
            "translation" : [
                0,
                40,
                0
            ]
        },
        {
            "mesh" : 2,
            "name" : "ceiling",
            "rotation" : [
                0.7071067690849304,
                0,
                0,
                0.7071067690849304
            ],
            "scale" : [
                50,
                50,
                1
            ],
            "translation" : [
                0,
                60,
                0
            ]
        }
    ],
    "materials" : [
        {
            "doubleSided" : true,
            "emissiveFactor" : [
                0,
                0,
                0
            ],
            "name" : "brick",
            "pbrMetallicRoughness" : {
                "metallicFactor" : 0.22857142984867096,
                "roughnessFactor" : 0.6514285802841187
            }
        },
        {
            "doubleSided" : true,
            "emissiveFactor" : [
                0,
                0,
                0
            ],
            "name" : "checkered.001",
            "pbrMetallicRoughness" : {
                "baseColorTexture" : {
                    "index" : 0,
                    "texCoord" : 0
                },
                "metallicFactor" : 0,
                "roughnessFactor" : 0.5
            }
        },
        {
            "doubleSided" : true,
            "emissiveFactor" : [
                0,
                0,
                0
            ],
            "name" : "veronai",
            "pbrMetallicRoughness" : {
                "metallicFactor" : 0,
                "roughnessFactor" : 0.7857142686843872
            }
        }
    ],
    "meshes" : [
        {
            "name" : "Cube.002",
            "primitives" : [
                {
                    "attributes" : {
                        "POSITION" : 0,
                        "NORMAL" : 1,
                        "TEXCOORD_0" : 2
                    },
                    "indices" : 3,
                    "material" : 0
                }
            ]
        },
        {
            "name" : "Cube.003",
            "primitives" : [
                {
                    "attributes" : {
                        "POSITION" : 4,
                        "NORMAL" : 5,
                        "TEXCOORD_0" : 6
                    },
                    "indices" : 7,
                    "material" : 1
                }
            ]
        },
        {
            "name" : "Cube.006",
            "primitives" : [
                {
                    "attributes" : {
                        "POSITION" : 8,
                        "NORMAL" : 9,
                        "TEXCOORD_0" : 10
                    },
                    "indices" : 7,
                    "material" : 2
                }
            ]
        }
    ],
    "textures" : [
        {
            "source" : 0
        }
    ],
    "images" : [
        {
            "bufferView" : 8,
            "mimeType" : "image/jpeg",
            "name" : "tilejpg"
        }
    ],
    "accessors" : [
        {
            "bufferView" : 0,
            "componentType" : 5126,
            "count" : 54,
            "max" : [
                1,
                1,
                1
            ],
            "min" : [
                -1,
                -1,
                -1
            ],
            "type" : "VEC3"
        },
        {
            "bufferView" : 1,
            "componentType" : 5126,
            "count" : 54,
            "type" : "VEC3"
        },
        {
            "bufferView" : 2,
            "componentType" : 5126,
            "count" : 54,
            "type" : "VEC2"
        },
        {
            "bufferView" : 3,
            "componentType" : 5123,
            "count" : 144,
            "type" : "SCALAR"
        },
        {
            "bufferView" : 4,
            "componentType" : 5126,
            "count" : 486,
            "max" : [
                1,
                1,
                41.37078857421875
            ],
            "min" : [
                -1,
                -1,
                39.37078857421875
            ],
            "type" : "VEC3"
        },
        {
            "bufferView" : 5,
            "componentType" : 5126,
            "count" : 486,
            "type" : "VEC3"
        },
        {
            "bufferView" : 6,
            "componentType" : 5126,
            "count" : 486,
            "type" : "VEC2"
        },
        {
            "bufferView" : 7,
            "componentType" : 5123,
            "count" : 2304,
            "type" : "SCALAR"
        },
        {
            "bufferView" : 9,
            "componentType" : 5126,
            "count" : 486,
            "max" : [
                1,
                1,
                41.37078857421875
            ],
            "min" : [
                -1,
                -1,
                39.37078857421875
            ],
            "type" : "VEC3"
        },
        {
            "bufferView" : 10,
            "componentType" : 5126,
            "count" : 486,
            "type" : "VEC3"
        },
        {
            "bufferView" : 11,
            "componentType" : 5126,
            "count" : 486,
            "type" : "VEC2"
        }
    ],
    "bufferViews" : [
        {
            "buffer" : 0,
            "byteLength" : 648,
            "byteOffset" : 0
        },
        {
            "buffer" : 0,
            "byteLength" : 648,
            "byteOffset" : 648
        },
        {
            "buffer" : 0,
            "byteLength" : 432,
            "byteOffset" : 1296
        },
        {
            "buffer" : 0,
            "byteLength" : 288,
            "byteOffset" : 1728
        },
        {
            "buffer" : 0,
            "byteLength" : 5832,
            "byteOffset" : 2016
        },
        {
            "buffer" : 0,
            "byteLength" : 5832,
            "byteOffset" : 7848
        },
        {
            "buffer" : 0,
            "byteLength" : 3888,
            "byteOffset" : 13680
        },
        {
            "buffer" : 0,
            "byteLength" : 4608,
            "byteOffset" : 17568
        },
        {
            "buffer" : 0,
            "byteLength" : 2480,
            "byteOffset" : 22176
        },
        {
            "buffer" : 0,
            "byteLength" : 5832,
            "byteOffset" : 24656
        },
        {
            "buffer" : 0,
            "byteLength" : 5832,
            "byteOffset" : 30488
        },
        {
            "buffer" : 0,
            "byteLength" : 3888,
            "byteOffset" : 36320
        }
    ],
    "buffers" : [
        {
            "byteLength" : 40208,
            "uri" : "data:application/octet-stream;base64,"
        }
    ]
}
